<svg viewBox="0 0 1672 941" width="1672" height="941" xmlns="http://www.w3.org/2000/svg">
  <defs>
    <filter id="crack-glow" x="-60%" y="-60%" width="220%" height="220%">
      <feGaussianBlur stdDeviation="7" result="blur"/>
    </filter>
    <filter id="crack-glow-soft" x="-80%" y="-80%" width="260%" height="260%">
      <feGaussianBlur stdDeviation="14" result="blur"/>
    </filter>
  </defs>
  <g fill="none" stroke-linecap="round" stroke-linejoin="round">
    <g stroke="#f3c46a" stroke-width="10" opacity="0.35" filter="url(#crack-glow-soft)">
      <path d="M1148,150 L1128,243 L1060,300" />
      <path d="M1128,243 L1140,315 L990,445" />
      <path d="M1140,315 L1155,360 L1210,410 L1240,460" />
      <path d="M1195,175 L1188,243 L1240,300" />
      <path d="M1188,243 L1185,295" />
    </g>
    <g stroke="#f3c46a" stroke-width="5" opacity="0.6" filter="url(#crack-glow)">
      <path d="M1148,150 L1128,243 L1060,300" />
      <path d="M1128,243 L1140,315 L990,445" />
      <path d="M1140,315 L1155,360 L1210,410 L1240,460" />
      <path d="M1195,175 L1188,243 L1240,300" />
      <path d="M1188,243 L1185,295" />
    </g>
    <g stroke="#fff3d6" stroke-width="1.5" opacity="0.95">
      <path d="M1148,150 L1128,243 L1060,300" />
      <path d="M1128,243 L1140,315 L990,445" />
      <path d="M1140,315 L1155,360 L1210,410 L1240,460" />
      <path d="M1195,175 L1188,243 L1240,300" />
      <path d="M1188,243 L1185,295" />
    </g>
  </g>
</svg>
