<svg viewBox="0 0 24 24" xmlns="http://www.w3.org/2000/svg"><circle cx="12" cy="12" r="12" fill="#111114"/><path fill="#f5f5f7" d="M15.4 8.1c-.7.9-1.5 1.4-2.4 1.3-.1-.9.3-1.8.9-2.4.7-.7 1.6-1.2 2.4-1.2.1.9-.2 1.7-.9 2.3zm.8 1.3c1.3.1 2.2.9 2.2.9-.1.1-1.3.8-1.3 2.2 0 1.7 1.4 2.3 1.4 2.3-.1.3-.6 1.5-1.4 2.6-.7 1-1.5 2-2.6 2-1 0-1.3-.6-2.5-.6-1.2 0-1.6.6-2.5.6-1.1 0-1.9-1-2.6-2-1.9-2.7-2.1-6.3-1-8.1.7-1.2 1.9-1.9 3-1.9 1 0 1.7.7 2.5.7.8 0 1.4-.7 2.5-.7.9 0 1.9.5 2.6 1.4-2.1 1.2-1.9 4.4.2 4.6z"/></svg>
