<svg viewBox="0 0 24 24" xmlns="http://www.w3.org/2000/svg"><circle cx="12" cy="12" r="12" fill="#232F3E"/><path fill="#FF9900" d="M6.3 15.4c2.6 1.9 6.6 2.7 10.4 1.1.3-.1.5.2.3.5-1.6 1.5-4.3 2.4-6.9 2.3-3 0-5.7-1.4-7.6-3.6-.2-.3.1-.5.4-.3z"/><path fill="#FF9900" d="M17.4 15c-.3-.4-2-.2-2.7-.1-.2 0-.2-.2-.1-.3 1.3-1 3.5-.7 3.8-.4.3.4-.1 2.6-1.3 3.6-.2.1-.3 0-.3-.2.3-.7.9-2.2.6-2.6z"/><path fill="#E8ECEF" d="M12.5 10.6c0 .9 0 1.7-.5 2.4-.4.6-1 1-1.7 1-1 0-1.5-.7-1.5-1.7 0-2 1.8-2.4 3.5-2.4v-.4c0-.5 0-1.1-.3-1.5-.2-.3-.6-.5-1-.5-.7 0-1.3.3-1.4 1-.1.2-.2.4-.4.4l-1.6-.2c-.1 0-.3-.1-.2-.4C7.7 6.5 9.2 6 10.6 6c.7 0 1.6.2 2.2.7.7.6.6 1.4.6 2.3v2.9c0 .6.2.9.5 1.2.1.1.1.3 0 .4-.3.2-.7.6-1 .8h-.1c-.2 0-.3 0-.4-.1-.4-.4-.5-.6-.7-1-.5.6-1.2 1-2 1z"/></svg>
