<svg viewBox="0 0 24 24" xmlns="http://www.w3.org/2000/svg"><circle cx="12" cy="12" r="12" fill="#1ED760"/><path fill="#06120a" d="M12 5.2c-3.7 0-6.8 3-6.8 6.8s3 6.8 6.8 6.8 6.8-3 6.8-6.8-3.1-6.8-6.8-6.8zm3.1 9.8c-.1.2-.4.3-.6.2-1.7-1-3.8-1.3-6.3-.7-.3.1-.5-.1-.5-.3-.1-.3.1-.5.3-.5 2.7-.6 5.1-.4 7 .8.2.1.3.4.1.5zm.8-1.9c-.2.3-.5.4-.8.2-1.9-1.2-4.8-1.5-7.1-.8-.3.1-.6-.1-.7-.4-.1-.3.1-.6.4-.7 2.6-.8 5.8-.4 8 1 .3.1.4.5.2.7zm.1-2c-2.2-1.3-6-1.5-8.2-.8-.4.1-.7-.1-.8-.4-.1-.4.1-.7.4-.8 2.5-.7 6.7-.6 9.3 1 .3.2.4.6.2.9-.2.2-.6.3-.9.1z"/></svg>
